<svg xmlns="http://www.w3.org/2000/svg" width="1366" height="768" fill="none" viewBox="0 0 1366 768"><g clip-path="url(#clip0)"><rect width="1366" height="768" fill="#fff"/><rect width="550" height="50" x="248.868" y="288.777" fill="#000" fill-opacity=".69" rx="25" transform="rotate(-45 248.868 288.777)"/><rect width="550" height="50" x="114" y="677.908" fill="#6034DC" fill-opacity=".57" rx="25" transform="rotate(-45 114 677.908)"/><rect width="550" height="50" x="538" y="542.908" fill="#FFE600" rx="25" transform="rotate(-45 538 542.908)"/><rect width="550" height="50" x="538" y="931.908" fill="#D7000D" fill-opacity=".71" rx="25" transform="rotate(-45 538 931.908)"/><rect width="550" height="50" x="1051" y="677.908" fill="#9E00FF" fill-opacity=".75" rx="25" transform="rotate(-45 1051 677.908)"/><rect width="550" height="50" x="1016" y="433.908" fill="#0057FF" rx="25" transform="rotate(-45 1016 433.908)"/><rect width="550" height="50" x="592" y="221.908" fill="#00A3FF" rx="25" transform="rotate(-45 592 221.908)"/><rect width="274.693" height="50" x="981" y="112.236" fill="#FFE600" fill-opacity=".68" rx="25" transform="rotate(-45 981 112.236)"/><rect width="274.693" height="50" x="291" y="792.236" fill="#FFE600" fill-opacity=".68" rx="25" transform="rotate(-45 291 792.236)"/><rect width="274.693" height="50" x="-35" y="560.236" fill="#00A3FF" rx="25" transform="rotate(-45 -35 560.236)"/><rect width="627.711" height="50" x="-73" y="351.859" fill="#6034DC" fill-opacity=".76" rx="25" transform="rotate(-45 -73 351.859)"/></g><defs><clipPath id="clip0"><rect width="1366" height="768" fill="#fff"/></clipPath></defs></svg>